<svg xmlns="http://www.w3.org/2000/svg" viewBox="0 0 234 229" width="24" height="24">
	<style>
		.s0 { fill: #888888 } 
		.s1 { fill: #cc0000 } 
	</style>
	<g transform="translate(-2505, -82)">
		<path class="s0" d="m2689.3 105.47c50.35 38.36 54.03 103.41 30.4 142.91-1.75-0.5-3.13-1.66-4.77-2.71 1.62-3.65 3.24-7.19 4.75-10.78 0.96-2.3 1.68-4.71 2.65-7.01 0.7-1.66 0.48-3.03-0.68-4.36-4.87-5.61-11.05-9.28-17.78-12.16-1.37-0.59-1.96 0.33-2.67 1.15-6.13 7.14-12.42 14.13-19.6 20.27-1.25 1.07-2.74 1.9-3.66 3.34 0.26 1.09 1.26 1.29 2 1.76 4.2 2.71 8.42 5.4 12.17 8.73 3.96 3.51 3.97 3.96 0.37 8.63-2.71-3.11-5.99-5.49-9.31-7.84-3.07-2.19-6.44-3.83-9.62-5.81-1.42-0.88-2.5-0.33-3.64 0.5-11.1 8.03-22.97 14.76-35.44 20.41-7.27 3.3-14.67 6.3-22.38 8.87 0.32 1.22 1.3 1.6 2.07 2.12 12.93 8.78 26.9 15.27 41.99 19.38 1.63 0.45 3.03 0.36 4.58-0.26 11.95-4.81 22.63-11.64 32.28-20.12 0.68-0.6 1.25-1.37 2.26-1.54q2.05 1.75 4.09 3.49c-0.34 1.25-1.3 1.84-2.08 2.54-17.53 15.45-37.78 25.17-61.01 28.04-32.56 4.01-61.51-4.87-86.6-25.88-21.08-17.65-33.84-40.27-37.88-67.48-4.92-33.19 3.43-62.9 24.82-88.75 16.42-19.84 37.49-32.34 62.67-37.39 32.76-6.56 62.77 0.34 90.02 19.95zm-136.76 33.41c-0.97 0.21-1.93 0.74-3.57 0.01 13.64-7.69 27.96-10.65 42.85-11.86-7.48-4.92-16.01-6.47-24.56-8.03 19.4-2.98 38.05 0.29 56.97 6.4-6.5-7.82-13.42-14.23-21.81-19.11 0.75-0.79 1.24-0.52 1.68-0.39 6 1.75 11.88 3.8 17.5 6.59 5.6 2.78 10.77 6.31 16.23 9.35 1.53 0.85 3.15 1.87 5.16 1.19-0.24-4.93-3.33-8.49-5.6-12.47 3.08 1.19 5.44 3.31 8.04 5.04 3.9 2.6 6.55 6.96 10.81 8.8 6.85 2.96 12.16 7.36 16.02 13.65 0.21 0.35 0.52 0.66 0.83 0.93 5.24 4.56 10.7 8.52 18.29 7.41 2.55-0.38 4.51 0.77 5.68 3.17 2.58 5.32-0.42 16.02-5.72 19.47-0.09-3.27 0.09-6.65-3.66-8.02-3.33-1.22-6.14-0.16-8.47 2.34-2.08-2.89-3.14-3.56-6.44-4.2-2.37-0.46-4.75-0.83-7.05-1.63-2.17-0.76-3.55 0.56-3.02 2.84 0.37 1.59 1.34 2.86 2.47 3.99 1.83 1.84 3.92 3.36 6.08 4.77 3.15 2.06 3.39 1.99 5.02-1.3 3.78 3.04 3.38 11.68-0.87 14.59-1.22-3.53-3.56-6.19-6.49-8.34-4.22-3.09-8.92-5.12-13.95-6.52-3.58-0.99-7.28-0.69-10.87-1.4-1.57-0.31-3.26-0.4-4.45-1.9 1.01-1.25 2.82-1.78 2.87-3.78-5.59-0.25-10.74-1.59-15.32-5.31 2.2-1.77 4.76-2.7 4.92-5.61-6.73-2.35-15.53-2.49-22.02-0.57-11.32 3.35-19.58 14.15-17.06 27.32 1.88 9.81 7.98 16.6 15.55 22.43 0.86 0.67 1.69 0.43 2.6 0.23 11.73-2.55 23.58-4.22 35.59-4.44 17.44-0.31 34.52 1.93 51.02 7.82 1.63 0.59 2.63 0.21 3.58-1.17 9.98-14.51 16.14-30.34 16.88-48.1 0.05-1.31-0.28-2.44-0.83-3.59-7.68-15.91-18.44-29.28-32.8-39.63-24.18-17.42-51.17-23.52-80.45-18.93-19.27 3.02-36.28 11.31-51.02 24.17-23.53 20.53-35.46 46.55-36.51 77.61-0.53 15.72 2.73 30.75 9.2 45.08 0.91 2.02 1.71 4.09 3.42 6.29 3.32-3.47 6.38-6.87 9.7-10 1.48-1.4 1.99-2.43 1.12-4.45-2.32-5.38-3.44-11.07-3.88-16.94-0.22-2.91-0.11-5.86-0.46-9.22-3.95 4.73-5.8 9.95-7.85 15.58-0.73-2.66-0.58-5.4 0.03-9.39 2.25-14.47 7.51-27.73 15.63-39.9 1.16-1.74 2.45-3.49 2.88-5.9-3.89 0.97-6.78 3.57-10.36 4.72 8.08-11.73 18.72-20.8 30.24-29.57-4.83-1.46-9.1-0.82-13.77-0.12zm110.51 97.16c-2.98-1.48-5.95-2.98-8.95-4.43-15.44-7.48-30.96-14.81-45.23-24.43-1.3-0.87-2.48-0.72-3.78-0.32-4.13 1.28-8.28 2.48-12.38 3.88-8.89 3.04-17.5 6.76-25.74 11.27 0.05 0.41 0.03 0.68 0.13 0.89q0.47 1.02 1.03 1.99c8.84 15.23 20.54 27.99 33.8 39.46 2.52 2.18 4.57 2.47 7.54 1.39 13.09-4.76 25.86-10.21 37.97-17.14 5.98-3.43 11.91-6.95 17.5-11.15-0.36-0.75-1.03-0.93-1.89-1.41zm-76.74-52.75c-1.57-3.82-2.46-7.81-2.36-11.92 0.37-14.67 9.77-26.18 24.11-29.55 7.8-1.83 15.53-1.33 23.14 1.19 0.89 0.29 2.05 0.95 2.54-0.45 0.45-1.27-0.86-1.47-1.6-1.8-2.27-1.04-4.57-2.04-6.91-2.91-20.18-7.59-39.01-5.29-54.75 9.75-19.39 18.53-28.47 41.44-25.28 68.55 0.41 3.52 1.28 6.98 2.67 10.48 2.61-1.72 4.9-3.55 7.47-4.86 2.48-1.25 2.72-2.56 1.73-5.07-3.2-8.18-4.69-16.65-2.79-25.42 1.83-8.42 6.04-15.63 11.58-22.12 0.22-0.25 0.55-0.4 1.05 0.16-8.37 15.15-9.21 30.82-2.57 47.16 11.61-6.33 23.43-10.88 36.06-14.69-6.1-5.46-11.1-11-14.09-18.5zm-5.58 69.75c-7.01-7.84-13.27-16.23-18.57-25.31-0.85-1.46-1.57-2.38-3.45-1.19-9.2 5.79-17.55 12.61-25.11 20.42-1.47 1.52-1.49 2.76-0.31 4.55 5.4 8.18 11.64 15.59 19.06 22.01 1.15 0.99 2.33 1.39 3.83 1.43 8.85 0.26 17.62-0.54 26.29-2.15 4.86-0.91 9.74-1.85 14.78-3.65-5.73-5.29-11.3-10.27-16.52-16.11zm93.73-22.87c7.9-6.38 14.89-13.64 21.81-21.99-26.55-8.85-52.86-9.01-80.22-4.04 5.18 3.41 9.83 6.14 14.63 8.57 12.24 6.21 24.62 12.15 36.82 18.43 2.7 1.4 4.68 1.64 6.96-0.97zm-93.34 48.86c-6.19 1.1-12.51 1.04-18.96 1.66 15.94 15.87 67.08 25.02 85.85 15.54-23.37-8.62-23.38-8.61-43.45-21.35-0.99-0.62-1.81-0.55-2.81-0.28-6.66 1.78-13.36 3.38-20.63 4.43zm128.36-78.87c-0.55 0.93-1.04 1.91-1.68 2.78-1.34 1.79-1.17 2.92 1 3.99 3.74 1.84 7.24 4.12 10.55 6.66 1.77 1.35 3.19 3.13 5.59 4.51 4.22-18.36 3.28-36.17-1.97-54.5-5.01 19.86-7.39 26.31-13.49 36.56zm-53.31-62.75c3.39 2.69 7.13 4.21 11.72 3.76-3.02-5.21-10.57-7.87-13.97-5.06 0.67 0.39 1.31 0.75 2.25 1.3zm31.01 13.93"/>
		<path class="s1" d="m2708.87 272.15c-6.98-0.24-11.72-4.4-12.08-10.42-0.37-6.23 3.49-11.33 9.32-12.3 6.35-1.05 12.2 2.73 13.46 8.7 1.38 6.53-2.16 12.07-8.76 13.71-0.56 0.14-1.14 0.2-1.94 0.31z"/>
	</g>
</svg>