<?xml version="1.0" encoding="UTF-8" standalone="no"?>
<svg
   viewBox="0 0 209.64404 205.46265"
   width="21.501953"
   height="21.533203"
   version="1.1"
   id="svg2"
   sodipodi:docname="wgtray.svg"
   xml:space="preserve"
   inkscape:version="1.4.3 (0d15f75042, 2025-12-25)"
   xmlns:inkscape="http://www.inkscape.org/namespaces/inkscape"
   xmlns:sodipodi="http://sodipodi.sourceforge.net/DTD/sodipodi-0.dtd"
   xmlns="http://www.w3.org/2000/svg"
   xmlns:svg="http://www.w3.org/2000/svg"><defs
     id="defs2" /><sodipodi:namedview
     id="namedview2"
     pagecolor="#ffffff"
     bordercolor="#000000"
     borderopacity="0.25"
     inkscape:showpageshadow="2"
     inkscape:pageopacity="0.0"
     inkscape:pagecheckerboard="0"
     inkscape:deskcolor="#d1d1d1"
     showgrid="false"
     inkscape:zoom="13.907086"
     inkscape:cx="9.9949048"
     inkscape:cy="9.4556114"
     inkscape:window-width="1181"
     inkscape:window-height="1094"
     inkscape:window-x="0"
     inkscape:window-y="0"
     inkscape:window-maximized="0"
     inkscape:current-layer="svg2"><inkscape:page
       x="0"
       y="0"
       width="209.64404"
       height="205.46265"
       id="page2"
       margin="0"
       bleed="0" /></sodipodi:namedview><style
     id="style1">
		.s0 { fill: #888888 } 
		.s1 { fill: #cc0000 } 
	</style><path
     id="path11"
     style="baseline-shift:baseline;display:inline;overflow:visible;vector-effect:none;fill:#4c8817;fill-opacity:1;stroke-width:0.985275;stroke-linecap:round;stroke-linejoin:round;paint-order:markers fill stroke;enable-background:accumulate;stop-color:#000000"
     d="M 104.83154,-2.5000002 C 46.890755,-2.5000002 -2.035664e-7,44.418149 -2.035664e-7,102.4458 c 0,17.53059 4.2938520035664,34.0606 11.8637702035664,48.57861 3.062309,-3.23099 5.93178,-6.38829 9.026367,-9.31201 1.486131,-1.40882 1.997139,-2.44239 1.123535,-4.4751 -2.32961,-5.41386 -3.461986,-11.15557 -3.903809,-17.0625 -0.220911,-2.92833 -0.105581,-5.89276 -0.457031,-9.27392 -3.966362,4.75977 -5.825298,10.02597 -7.8837892,15.6914 -0.733027,-2.67674 -0.59348,-5.44924 0.01904,-9.46435 2.2593202,-14.56108 7.5568122,-27.895987 15.7104492,-40.142579 1.164805,-1.750962 2.443706,-3.516246 2.875488,-5.941406 -3.906114,0.976106 -6.80263,3.603503 -10.39746,4.760742 8.113471,-11.803823 18.805814,-20.938959 30.373535,-29.76416 -4.850008,-1.4692 -9.135851,-0.818654 -13.825196,-0.114258 -0.974018,0.211332 -1.952327,0.734608 -3.599121,0 C 44.622281,38.187865 59.011208,35.222986 73.962888,34.00537 66.451903,29.054401 57.88766,27.481939 49.302243,25.912109 68.782605,22.913352 87.508951,26.200173 106.50732,32.348632 99.98039,24.479409 93.03266,18.02595 84.607907,13.115234 c 0.753106,-0.794973 1.233958,-0.511678 1.675781,-0.38086 6.024852,1.761015 11.933382,3.838435 17.576662,6.645996 5.62319,2.797498 10.81816,6.329049 16.30078,9.388184 1.53633,0.85535 3.16137,1.883977 5.17969,1.199707 -0.24099,-4.961031 -3.33827,-8.544264 -5.61768,-12.549316 3.09276,1.19749 5.46345,3.324539 8.07422,5.065429 3.91615,2.616365 6.57684,7.0034 10.85449,8.854981 6.87837,2.978632 12.21532,7.419431 16.09131,13.749023 0.21087,0.352203 0.50756,0.661406 0.81885,0.933106 5.2617,4.588702 10.75502,8.58182 18.37646,7.464843 2.56057,-0.382402 4.519,0.76507 5.69385,3.180176 2.59069,5.353487 -0.40998,16.1235 -5.73193,19.595215 -0.0904,-3.290592 0.0903,-6.695595 -3.6753,-8.074219 -3.3438,-1.227679 -6.17255,-0.135365 -8.5122,2.380371 -2.08862,-2.908191 -3.16094,-3.602544 -6.47461,-4.246582 -2.37982,-0.462896 -4.75541,-0.83266 -7.06494,-1.637695 -2.17899,-0.764784 -3.57908,0.562104 -3.04688,2.856445 0.37153,1.600019 1.35995,2.880954 2.49463,4.018067 1.83758,1.851571 3.9248,3.379953 6.09375,4.798828 3.16304,2.072956 3.40964,1.996744 5.04639,-1.313965 3.79566,3.059125 3.39162,11.753809 -0.87598,14.682125 -1.22506,-3.552209 -3.57055,-6.234422 -6.51269,-8.397945 -4.23748,-3.10945 -8.9648,-5.122917 -14.01563,-6.531739 -3.59483,-0.996232 -7.30675,-0.713753 -10.91162,-1.428222 -1.57651,-0.311941 -3.28017,-0.413888 -4.4751,-1.92334 1.01419,-1.257858 2.84433,-1.776962 2.89453,-3.789551 -5.61315,-0.251573 -10.78775,-1.607659 -15.38672,-5.351074 2.20912,-1.781141 4.77147,-2.727445 4.93213,-5.655762 -6.75788,-2.364801 -15.592,-2.503375 -22.10888,-0.571289 -11.366901,3.371086 -19.65007,14.245159 -17.119632,27.498047 1.887788,9.871745 8.01388,16.699212 15.615232,22.565912 0.86356,0.67422 1.69512,0.42977 2.60889,0.22852 11.77859,-2.56605 23.66486,-4.23468 35.72461,-4.45606 17.51224,-0.31195 34.67628,1.93769 51.24463,7.86475 1.63675,0.59373 2.62614,0.20802 3.58008,-1.18066 9.98749,-14.551997 16.17106,-30.418436 16.94824,-48.216798 C 184.72563,23.334617 147.82715,-2.5000002 104.83154,-2.5000002 Z M 85.369629,40.651366 C 73.493881,40.79494 62.417802,45.24591 52.539551,54.705077 33.06923,73.351703 23.952059,96.398083 27.155273,123.67871 c 0.411699,3.54215 1.270258,7.02777 2.666016,10.5498 2.620811,-1.73081 4.922284,-3.57579 7.50293,-4.89404 2.490274,-1.25786 2.727011,-2.57773 1.73291,-5.10352 -3.213256,-8.2315 -4.707186,-16.7495 -2.799316,-25.574697 1.837581,-8.47299 6.072305,-15.730384 11.635253,-22.261234 0.220912,-0.251584 0.545293,-0.411181 1.047364,0.152344 -8.404672,15.24536 -9.238307,31.012217 -2.570801,47.455077 C 58.027722,117.6326 69.887994,113.05906 82.570313,109.22509 76.445044,103.73071 71.423772,98.148283 68.421387,90.601073 66.844883,86.757034 65.959645,82.758906 66.060059,78.623046 66.431592,63.860707 75.864267,52.269141 90.263673,48.877929 c 7.83231,-1.841509 15.590897,-1.336155 23.232417,1.199707 0.89369,0.291826 2.05973,0.951771 2.55176,-0.457031 0.45187,-1.277994 -0.85655,-1.476995 -1.59961,-1.809082 -2.27941,-1.046546 -4.58194,-2.038099 -6.93164,-2.913575 -7.598847,-2.86417 -15.021517,-4.332732 -22.146971,-4.246582 z m 54.158201,1.352051 c -1.23823,0.06478 -2.36474,0.435656 -3.21826,1.142578 0.67277,0.392455 1.32221,0.741471 2.26611,1.294922 3.40404,2.706942 7.15954,4.242394 11.76856,3.789551 -2.27439,-3.932095 -7.10171,-6.421394 -10.81641,-6.227051 z m 65.73633,30.316406 c -4.7737,18.80852 -7.1906,25.21774 -13.15869,35.267577 -0.55228,0.93585 -1.03314,1.92385 -1.67579,2.79932 -1.34555,1.80127 -1.18875,2.94132 0.99024,4.01806 3.7555,1.85158 7.28321,4.14714 10.60693,6.70313 1.65663,1.26623 2.99513,2.92387 5.12256,4.26562 1.63341,-7.36869 2.49463,-15.0623 2.49463,-22.92773 0,-10.481137 -1.53208,-20.579611 -4.37988,-30.125977 z m -66.38379,36.086427 c -13.37141,-0.5283 -26.8439,0.67953 -40.580567,3.18017 5.201447,3.43146 9.862247,6.18119 14.682127,8.62647 12.2907,6.2491 24.73091,12.24736 36.98145,18.56689 2.71119,1.40881 4.69933,1.6362 6.98877,-0.99023 7.93273,-6.42015 14.95074,-13.72537 21.89941,-22.12793 -13.32999,-4.45284 -26.59978,-6.72706 -39.97119,-7.25537 z m -49.702147,5.59863 c -0.62257,-0.0214 -1.23256,0.12247 -1.885254,0.32373 -4.147107,1.28807 -8.318075,2.51404 -12.435059,3.92285 -8.926826,3.05915 -17.567175,6.79218 -25.841308,11.33057 0.05021,0.41257 0.01384,0.68369 0.114257,0.89502 0.314631,0.68428 0.672484,1.34876 1.047364,1.99951 8.876619,15.32586 20.619642,28.16239 33.93457,39.70459 2.530439,2.19372 4.5968,2.47693 7.5791,1.39014 13.144217,-4.78996 25.963857,-10.26027 38.124027,-17.23389 6.00477,-3.45159 11.9635,-7.00892 17.57666,-11.23535 -0.36149,-0.75472 -1.04074,-0.92616 -1.9043,-1.40918 -2.99235,-1.48931 -5.97585,-2.99693 -8.98828,-4.45606 -15.50395,-7.52707 -31.08836,-14.90392 -45.417477,-24.58447 -0.65269,-0.43774 -1.28173,-0.62606 -1.9043,-0.64746 z m 96.395507,4.66553 c -0.78041,0.0486 -1.23629,0.73318 -1.771,1.35205 -6.15539,7.18494 -12.48069,14.21639 -19.69043,20.39502 -1.25518,1.07674 -2.75148,1.90249 -3.67529,3.35156 0.26108,1.09686 1.25645,1.29805 1.99951,1.771 4.2174,2.72706 21.14266,14.20665 24.9082,17.55761 0.75746,0.67283 1.35561,1.23296 1.82813,1.73291 7.07887,-9.59461 12.57022,-20.43176 16.07226,-32.14453 -0.17022,-0.53913 -0.46748,-1.0865 -0.91406,-1.59961 -4.89017,-5.6453 -11.10442,-9.32746 -17.8623,-12.22558 -0.34392,-0.14843 -0.63489,-0.20663 -0.89502,-0.19043 z M 42.180176,133.58105 c -0.401963,0.008 -0.876376,0.17804 -1.466309,0.55225 -9.23811,5.82644 -17.621574,12.68821 -25.21289,20.54736 -0.419698,0.4349 -0.724013,0.8483 -0.914063,1.25684 6.026024,10.1835 13.727935,19.24699 22.718262,26.83154 0.27942,0.0393 0.57291,0.0682 0.875976,0.0762 8.88666,0.26164 17.68764,-0.55076 26.393555,-2.1709 4.880132,-0.91573 9.773596,-1.84492 14.834473,-3.65625 -5.753736,-5.3233 -11.344803,-10.34786 -16.586426,-16.22461 -7.039038,-7.88936 -13.321112,-16.3233 -18.643066,-25.46045 -0.586796,-1.01006 -1.115192,-1.76895 -1.999512,-1.75195 z m 112.372554,15.25342 c -0.76679,0.0226 -1.45545,0.43013 -2.1709,0.95215 -11.14599,8.08055 -23.06966,14.84276 -35.59131,20.52832 -7.30012,3.32077 -14.72876,6.34498 -22.470697,8.93115 0.32133,1.22768 1.30249,1.60954 2.07568,2.13281 12.983557,8.83526 27.008627,15.36413 42.161137,19.5 0.7158,0.19804 1.39727,0.29465 2.05664,0.28565 17.67953,-6.41646 33.12694,-17.4412 44.90332,-31.64942 -2.21646,-2.08033 -4.66173,-3.85894 -7.14111,-5.61767 -3.08271,-2.2038 -19.14423,-12.63255 -22.33741,-14.625 -0.5347,-0.33208 -1.02528,-0.45154 -1.48535,-0.43799 z m -69.544917,33.4585 c -0.344252,0.0193 -0.708897,0.12663 -1.08545,0.22851 -6.687588,1.7912 -13.399591,3.39945 -20.699707,4.45606 -6.008995,1.07012 -12.142508,1.03845 -18.395508,1.5996 16.993057,11.88874 37.67714,18.87159 60.004392,18.87159 8.77824,0 17.29551,-1.0929 25.44141,-3.12305 0.0392,-0.01 0.0751,-0.0471 0.11425,-0.0571 -23.46681,-8.67425 -23.4743,-8.67932 -43.627434,-21.49951 -0.621313,-0.38998 -1.1782,-0.50818 -1.751953,-0.47607 z" /></svg>
