<?xml version="1.0" encoding="UTF-8" standalone="no"?>
<svg
   viewBox="0 0 214.5 209.91667"
   width="22"
   height="22"
   version="1.1"
   id="svg2"
   xml:space="preserve"
   xmlns="http://www.w3.org/2000/svg"
   xmlns:svg="http://www.w3.org/2000/svg"><defs
     id="defs2" /><style
     id="style1">
		.s0 { fill: #888888 } 
		.s1 { fill: #cc0000 } 
	</style><path
     id="path11"
     style="baseline-shift:baseline;display:inline;overflow:visible;vector-effect:none;fill:#88171a;fill-opacity:1;stroke-width:1.00737;stroke-linecap:round;stroke-linejoin:round;paint-order:markers fill stroke;enable-background:accumulate;stop-color:#000000"
     d="M 107.25973,-2.4999991 C 47.976877,-2.4999991 1.5367432e-7,45.435241 1.5367432e-7,104.72081 1.5367432e-7,122.63143 4.39331,139.51978 12.138569,154.35251 c 3.133241,-3.30104 6.069176,-6.52678 9.235443,-9.51387 1.520555,-1.43936 2.043397,-2.49534 1.149559,-4.57212 -2.383569,-5.53122 -3.542175,-11.3974 -3.994231,-17.43237 -0.226028,-2.99182 -0.108027,-6.02052 -0.467618,-9.47496 -4.058234,4.86295 -5.960229,10.24331 -8.0664,16.03155 -0.750007,-2.73476 -0.607227,-5.56736 0.01949,-9.66952 2.311651,-14.87673 7.731848,-28.500708 16.074346,-41.012786 1.191786,-1.788919 2.50031,-3.59247 2.942093,-6.070203 -3.99659,0.997267 -6.960198,3.681619 -10.638295,4.863945 8.301402,-12.059706 19.24141,-21.392873 31.077072,-30.409387 -4.962348,-1.501049 -9.347463,-0.8364 -14.145427,-0.116734 -0.996578,0.215913 -1.997547,0.750532 -3.682486,0 C 45.655863,39.069898 60.378077,36.040747 75.676081,34.796735 67.991122,29.738439 59.228505,28.131889 50.444225,26.528028 70.375808,23.464264 89.535912,26.822337 108.97433,33.104082 102.29622,25.06427 95.187561,18.470913 86.567672,13.453743 c 0.77055,-0.812206 1.262534,-0.522771 1.714597,-0.389116 6.164402,1.79919 12.209791,3.921644 17.983781,6.790067 5.75344,2.858142 11.06874,6.46625 16.67835,9.591701 1.57191,0.873892 3.2346,1.924818 5.29968,1.225714 -0.24658,-5.068576 -3.4156,-8.729486 -5.74782,-12.821359 3.16441,1.223449 5.59001,3.396608 8.26125,5.175237 4.00686,2.673082 6.72918,7.155219 11.1059,9.046939 7.03769,3.043203 12.49828,7.580269 16.46403,14.047074 0.21577,0.359838 0.51932,0.675743 0.83783,0.953334 5.38356,4.688175 11.00414,8.767856 18.80212,7.626666 2.61987,-0.390692 4.62366,0.781655 5.82572,3.249115 2.65071,5.46954 -0.41947,16.473026 -5.86469,20.02 -0.0925,-3.361925 0.0924,-6.840742 -3.76043,-8.249252 -3.42125,-1.254292 -6.31554,-0.138299 -8.70936,2.431973 -2.137,-2.971235 -3.23416,-3.68064 -6.62459,-4.338639 -2.43494,-0.472932 -4.86557,-0.850711 -7.22859,-1.673197 -2.22947,-0.781363 -3.66198,0.574288 -3.11745,2.918366 0.38014,1.634705 1.39144,2.943408 2.55242,4.105171 1.88014,1.891709 4.01571,3.453224 6.23488,4.902857 3.23631,2.117894 3.48864,2.04003 5.16328,-1.342449 3.88359,3.125441 3.47018,12.008611 -0.89627,15.000397 -1.25342,-3.629209 -3.65324,-6.369566 -6.66353,-8.579988 -4.33563,-3.176858 -9.17245,-5.233972 -14.34027,-6.673334 -3.67811,-1.017829 -7.47599,-0.729226 -11.16438,-1.459183 -1.61301,-0.318704 -3.35613,-0.422861 -4.57875,-1.965035 1.03769,-1.285126 2.91022,-1.815483 2.96159,-3.871701 -5.74317,-0.257026 -11.03763,-1.64251 -15.74313,-5.467074 2.26029,-1.819753 4.88199,-2.78657 5.04638,-5.778368 -6.91442,-2.416065 -15.95316,-2.557643 -22.620989,-0.583673 -11.630185,3.444164 -20.10522,14.553965 -17.51617,28.09415 1.931515,10.085746 8.199505,17.061214 15.97693,23.055094 0.88356,0.68883 1.73437,0.43909 2.66931,0.23347 12.051419,-2.62168 24.213009,-4.32648 36.552099,-4.55265 17.91787,-0.31872 35.47948,1.97969 52.43159,8.03524 1.67467,0.60659 2.68697,0.21253 3.663,-1.20626 C 198.43484,96.137582 204.76163,79.927188 205.55682,61.742992 189.0044,23.894661 151.25125,-2.4999991 107.25973,-2.4999991 Z M 87.347032,41.586803 C 75.196207,41.733488 63.863575,46.280947 53.756517,55.945169 33.835208,74.996017 24.506857,98.541992 27.784266,126.41401 c 0.421235,3.61894 1.299682,7.18012 2.727769,10.7785 2.681516,-1.76833 5.036297,-3.65331 7.676719,-5.00013 2.547956,-1.28513 2.790176,-2.63361 1.773049,-5.21416 -3.287685,-8.40994 -4.816217,-17.1126 -2.864157,-26.12911 1.880144,-8.656658 6.212957,-16.071375 11.90476,-22.743805 0.226028,-0.257038 0.557922,-0.420094 1.071622,0.155648 C 41.47468,93.836802 40.621737,109.94545 47.443682,126.74476 59.371808,120.23683 71.506796,115.56414 84.48288,111.64706 78.215728,106.03358 73.078148,100.33013 70.006221,92.619312 68.3932,88.691947 67.487457,84.607152 67.590197,80.381632 67.970336,65.299275 77.621498,53.456428 92.354431,49.991701 c 8.013729,-1.881429 15.952039,-1.36512 23.770549,1.225714 0.9144,0.298152 2.10745,0.972403 2.61087,-0.466939 0.46234,-1.305698 -0.87639,-1.509013 -1.63666,-1.848299 -2.33221,-1.069233 -4.68807,-2.08228 -7.09221,-2.976735 -7.77485,-2.92626 -15.369449,-4.426657 -22.659948,-4.338639 z m 55.412658,1.38136 c -1.26691,0.06618 -2.41951,0.445101 -3.2928,1.167347 0.68834,0.400963 1.35284,0.757544 2.3186,1.322994 3.48287,2.765622 7.32538,4.33436 12.04115,3.8717 -2.32707,-4.017335 -7.26622,-6.560597 -11.06695,-6.362041 z m 67.25896,30.973605 c -4.88425,19.216254 -7.35714,25.764404 -13.46346,36.032102 -0.56508,0.95614 -1.05709,1.96555 -1.71461,2.86001 -1.37672,1.84031 -1.21629,3.00508 1.01317,4.10516 3.84249,1.89172 7.45192,4.23704 10.85262,6.84844 1.695,1.29368 3.06451,2.98725 5.24122,4.35809 1.67124,-7.52843 2.55241,-15.38882 2.55241,-23.42476 0,-10.708348 -1.56757,-21.025732 -4.48135,-30.779042 z m -67.92141,36.868712 c -13.68113,-0.53976 -27.46568,0.69425 -41.52054,3.2491 5.32193,3.50585 10.0907,6.31519 15.02222,8.81348 12.57538,6.38456 25.30375,12.51286 37.83803,18.96938 2.77399,1.43935 4.80819,1.67167 7.15066,-1.0117 8.11646,-6.55932 15.29704,-14.0229 22.40667,-22.60761 -13.63876,-4.54937 -27.21591,-6.87289 -40.89704,-7.41265 z m -50.853399,5.71999 c -0.63699,-0.0219 -1.261108,0.12512 -1.928918,0.33075 -4.243169,1.31599 -8.510746,2.56854 -12.723091,4.00789 -9.133596,3.12546 -17.974081,6.93942 -26.439866,11.57619 0.05137,0.42151 0.01416,0.69851 0.116903,0.91442 0.321919,0.69912 0.688061,1.378 1.071624,2.04286 9.082227,15.6581 21.097251,28.77289 34.720593,40.56531 2.589052,2.24127 4.703265,2.53062 7.754655,1.42027 13.448679,-4.8938 26.565249,-10.48269 39.007089,-17.60749 6.14384,-3.52641 12.24059,-7.16085 17.98379,-11.4789 -0.36987,-0.77108 -1.06485,-0.94624 -1.94842,-1.43974 -3.06165,-1.52159 -6.11426,-3.06189 -9.19647,-4.55265 -15.86307,-7.69025 -31.80845,-15.22701 -46.469469,-25.11741 -0.66781,-0.44723 -1.31142,-0.63963 -1.94842,-0.6615 z m 98.628299,4.76667 c -0.79849,0.0497 -1.26491,0.74908 -1.81203,1.38136 -6.29795,7.3407 -12.76976,14.52457 -20.1465,20.83714 -1.28425,1.10008 -2.81523,1.94374 -3.76042,3.42422 0.26713,1.12063 1.28554,1.32618 2.04583,1.80939 4.31508,2.78618 21.63238,14.51463 25.48514,17.93822 0.775,0.68742 1.387,1.25969 1.87046,1.77048 7.24284,-9.80261 12.8614,-20.87468 16.44455,-32.84136 -0.17416,-0.55082 -0.4783,-1.11005 -0.93522,-1.63428 -5.00346,-5.76769 -11.36164,-9.52967 -18.27606,-12.49061 -0.35189,-0.15165 -0.64958,-0.21111 -0.91575,-0.19456 z M 43.157188,136.53102 c -0.411273,0.008 -0.896676,0.18189 -1.500273,0.56421 -9.45209,5.95275 -18.029738,12.96326 -25.796891,20.99279 -0.429419,0.44432 -0.740783,0.86669 -0.935235,1.28408 6.165603,10.40426 14.045913,19.66424 23.24448,27.4132 0.285892,0.0401 0.58618,0.0697 0.896266,0.0778 9.0925,0.26732 18.097336,-0.5627 27.004905,-2.21796 4.99317,-0.93558 9.99998,-1.88491 15.178081,-3.73551 -5.887009,-5.4387 -11.60758,-10.57218 -16.970614,-16.57633 -7.202083,-8.06038 -13.629667,-16.67715 -19.074892,-26.01238 -0.600388,-1.03195 -1.141024,-1.8073 -2.045827,-1.78993 z M 158.13262,152.1151 c -0.78456,0.0231 -1.48917,0.43945 -2.22119,0.97279 -11.40417,8.25572 -23.60402,15.16452 -36.41571,20.97333 -7.46921,3.39276 -15.06992,6.48253 -22.991179,9.12476 0.32877,1.25429 1.33266,1.64443 2.12376,2.17904 13.284289,9.02679 27.634219,15.69719 43.137709,19.92272 0.73238,0.20234 1.42962,0.30105 2.10427,0.29184 18.08903,-6.55555 33.89426,-17.81928 45.94342,-32.33551 -2.26781,-2.12542 -4.76971,-3.9426 -7.30652,-5.73945 -3.15412,-2.25157 -19.58768,-12.9064 -22.85481,-14.94204 -0.54709,-0.33928 -1.04904,-0.46133 -1.51975,-0.44748 z m -71.155784,34.18381 c -0.352229,0.0197 -0.725322,0.12937 -1.110597,0.23347 -6.842488,1.83002 -13.70996,3.47314 -21.179167,4.55265 -6.148181,1.09332 -12.423762,1.06096 -18.821601,1.63428 C 63.252136,204.86577 84.415321,212 107.25973,212 c 8.98158,0 17.69613,-1.11659 26.03072,-3.19075 0.0402,-0.0102 0.0768,-0.0481 0.11689,-0.0583 -24.01037,-8.8623 -24.01803,-8.86748 -44.637971,-21.96558 -0.63571,-0.39844 -1.20549,-0.5192 -1.792533,-0.4864 z" /></svg>
